<svg width="149" height="16" viewBox="0 0 149 16" fill="none" xmlns="http://www.w3.org/2000/svg">
<path d="M7.95133 15H1.21133C0.957995 15 0.771328 14.9467 0.651328 14.84C0.544662 14.72 0.491328 14.5333 0.491328 14.28V1.32C0.491328 1.06667 0.544662 0.886666 0.651328 0.779999C0.771328 0.659999 0.957995 0.599999 1.21133 0.599999H7.95133C9.618 0.599999 10.8513 0.933333 11.6513 1.6C12.4647 2.26667 12.8713 3.29333 12.8713 4.68V10.92C12.8713 12.3067 12.4647 13.3333 11.6513 14C10.8513 14.6667 9.618 15 7.95133 15ZM5.03133 4.42V11.22H7.41133C7.73133 11.22 7.96466 11.14 8.11133 10.98C8.27133 10.82 8.35133 10.5733 8.35133 10.24V5.38C8.35133 5.04667 8.27133 4.80667 8.11133 4.66C7.96466 4.5 7.73133 4.42 7.41133 4.42H5.03133ZM28.6132 11.22C28.6132 11.8333 28.5199 12.3933 28.3332 12.9C28.1599 13.3933 27.8399 13.82 27.3732 14.18C26.9199 14.5267 26.2865 14.8 25.4732 15C24.6732 15.2 23.6532 15.3 22.4132 15.3C21.1732 15.3 20.1465 15.2 19.3332 15C18.5199 14.8 17.8799 14.5267 17.4132 14.18C16.9599 13.82 16.6399 13.3933 16.4532 12.9C16.2799 12.3933 16.1932 11.8333 16.1932 11.22V4.4C16.1932 3.78667 16.2799 3.23333 16.4532 2.74C16.6399 2.23333 16.9599 1.8 17.4132 1.44C17.8799 1.08 18.5199 0.799999 19.3332 0.599999C20.1465 0.4 21.1732 0.3 22.4132 0.3C23.6532 0.3 24.6732 0.4 25.4732 0.599999C26.2865 0.799999 26.9199 1.08 27.3732 1.44C27.8399 1.8 28.1599 2.23333 28.3332 2.74C28.5199 3.23333 28.6132 3.78667 28.6132 4.4V11.22ZM20.7332 10.5C20.7332 10.7667 20.8332 10.9933 21.0332 11.18C21.2332 11.3533 21.6932 11.44 22.4132 11.44C23.1332 11.44 23.5932 11.3533 23.7932 11.18C23.9932 10.9933 24.0932 10.7667 24.0932 10.5V5.12C24.0932 4.86667 23.9932 4.65333 23.7932 4.48C23.5932 4.29333 23.1332 4.2 22.4132 4.2C21.6932 4.2 21.2332 4.29333 21.0332 4.48C20.8332 4.65333 20.7332 4.86667 20.7332 5.12V10.5ZM42.4993 0.599999H45.4793C45.7326 0.599999 45.9126 0.659999 46.0193 0.779999C46.1393 0.886666 46.1993 1.06667 46.1993 1.32V9.08C46.1993 9.50667 46.1793 9.90667 46.1393 10.28C46.1126 10.64 46.0126 11.0667 45.8393 11.56L44.8393 14.28C44.7726 14.48 44.6726 14.6533 44.5393 14.8C44.4193 14.9333 44.2526 15 44.0393 15H41.3793C41.166 15 40.9726 14.9533 40.7993 14.86C40.626 14.7667 40.5126 14.6133 40.4593 14.4L39.5393 11.14C39.4993 11.0067 39.446 10.92 39.3793 10.88C39.326 10.8267 39.2593 10.8 39.1793 10.8H38.9993C38.9193 10.8 38.846 10.8267 38.7793 10.88C38.726 10.92 38.6793 11.0067 38.6393 11.14L37.6993 14.4C37.646 14.6 37.546 14.7533 37.3993 14.86C37.2526 14.9533 37.0726 15 36.8593 15H34.2193C34.006 15 33.8193 14.9333 33.6593 14.8C33.5126 14.6667 33.406 14.4933 33.3393 14.28L32.3393 11.52C32.166 11.0267 32.0593 10.6 32.0193 10.24C31.9926 9.86667 31.9793 9.46667 31.9793 9.04V1.32C31.9793 1.06667 32.0326 0.886666 32.1393 0.779999C32.2593 0.659999 32.446 0.599999 32.6993 0.599999H35.7793C36.0326 0.599999 36.2126 0.659999 36.3193 0.779999C36.4393 0.886666 36.4993 1.06667 36.4993 1.32V8.68L37.6593 6.16C37.766 5.93333 37.906 5.77333 38.0793 5.68C38.2526 5.58667 38.466 5.54 38.7193 5.54H39.5593C39.8126 5.54 40.026 5.58667 40.1993 5.68C40.3726 5.77333 40.5126 5.93333 40.6193 6.16L41.7793 8.68V1.32C41.7793 1.06667 41.8326 0.886666 41.9393 0.779999C42.0593 0.659999 42.246 0.599999 42.4993 0.599999ZM53.5004 15H50.5004C50.2471 15 50.0604 14.9467 49.9404 14.84C49.8337 14.72 49.7804 14.5333 49.7804 14.28V1.32C49.7804 1.06667 49.8337 0.886666 49.9404 0.779999C50.0604 0.659999 50.2471 0.599999 50.5004 0.599999H52.5804C52.8337 0.599999 53.0471 0.639999 53.2204 0.719999C53.4071 0.8 53.5871 0.94 53.7604 1.14L57.6404 5.58V1.32C57.6404 1.06667 57.6937 0.886666 57.8004 0.779999C57.9204 0.659999 58.1071 0.599999 58.3604 0.599999H61.3604C61.6137 0.599999 61.7937 0.659999 61.9004 0.779999C62.0204 0.886666 62.0804 1.06667 62.0804 1.32V14.28C62.0804 14.5333 62.0204 14.72 61.9004 14.84C61.7937 14.9467 61.6137 15 61.3604 15H58.3604C58.1071 15 57.9204 14.9467 57.8004 14.84C57.6937 14.72 57.6404 14.5333 57.6404 14.28V11.82L54.2204 7.68V14.28C54.2204 14.5333 54.1604 14.72 54.0404 14.84C53.9337 14.9467 53.7537 15 53.5004 15ZM89.1924 15H84.3124C82.6458 15 81.4058 14.6667 80.5924 14C79.7924 13.3333 79.3924 12.3067 79.3924 10.92V4.7C79.3924 3.31333 79.7924 2.28667 80.5924 1.62C81.4058 0.939999 82.6458 0.599999 84.3124 0.599999H89.1924C89.4458 0.599999 89.6258 0.659999 89.7324 0.779999C89.8524 0.886666 89.9124 1.06667 89.9124 1.32V3.74C89.9124 3.99333 89.8524 4.18 89.7324 4.3C89.6258 4.40667 89.4458 4.46 89.1924 4.46H85.1724C84.7591 4.46 84.4524 4.54667 84.2524 4.72C84.0524 4.88 83.9524 5.12667 83.9524 5.46V10.22C83.9524 10.5533 84.0524 10.8 84.2524 10.96C84.4524 11.1067 84.7591 11.18 85.1724 11.18H89.1924C89.4458 11.18 89.6258 11.24 89.7324 11.36C89.8524 11.4667 89.9124 11.6467 89.9124 11.9V14.28C89.9124 14.5333 89.8524 14.72 89.7324 14.84C89.6258 14.9467 89.4458 15 89.1924 15ZM96.991 15H93.891C93.6377 15 93.451 14.9467 93.331 14.84C93.2243 14.72 93.171 14.5333 93.171 14.28V1.32C93.171 1.06667 93.2243 0.886666 93.331 0.779999C93.451 0.659999 93.6377 0.599999 93.891 0.599999H96.991C97.2443 0.599999 97.4243 0.659999 97.531 0.779999C97.651 0.886666 97.711 1.06667 97.711 1.32V5.66H101.051V1.32C101.051 1.06667 101.104 0.886666 101.211 0.779999C101.331 0.659999 101.518 0.599999 101.771 0.599999H104.871C105.124 0.599999 105.304 0.659999 105.411 0.779999C105.531 0.886666 105.591 1.06667 105.591 1.32V14.28C105.591 14.5333 105.531 14.72 105.411 14.84C105.304 14.9467 105.124 15 104.871 15H101.771C101.518 15 101.331 14.9467 101.211 14.84C101.104 14.72 101.051 14.5333 101.051 14.28V9.84H97.711V14.28C97.711 14.5333 97.651 14.72 97.531 14.84C97.4243 14.9467 97.2443 15 96.991 15ZM109.747 15C109.493 15 109.307 14.9467 109.187 14.84C109.08 14.72 109.027 14.5333 109.027 14.28V11.9C109.027 11.6467 109.08 11.4667 109.187 11.36C109.307 11.24 109.493 11.18 109.747 11.18H111.727V4.46H109.747C109.493 4.46 109.307 4.40667 109.187 4.3C109.08 4.18 109.027 3.99333 109.027 3.74V1.32C109.027 1.06667 109.08 0.886666 109.187 0.779999C109.307 0.659999 109.493 0.599999 109.747 0.599999H118.267C118.52 0.599999 118.7 0.659999 118.807 0.779999C118.927 0.886666 118.987 1.06667 118.987 1.32V3.74C118.987 3.99333 118.927 4.18 118.807 4.3C118.7 4.40667 118.52 4.46 118.267 4.46H116.327V11.18H118.267C118.52 11.18 118.7 11.24 118.807 11.36C118.927 11.4667 118.987 11.6467 118.987 11.9V14.28C118.987 14.5333 118.927 14.72 118.807 14.84C118.7 14.9467 118.52 15 118.267 15H109.747ZM133.356 15H123.176C122.923 15 122.736 14.9467 122.616 14.84C122.51 14.72 122.456 14.5333 122.456 14.28V1.32C122.456 1.06667 122.51 0.886666 122.616 0.779999C122.736 0.659999 122.923 0.599999 123.176 0.599999H126.276C126.53 0.599999 126.71 0.659999 126.816 0.779999C126.936 0.886666 126.996 1.06667 126.996 1.32V11.22H129.736V7.98C129.736 7.72667 129.79 7.54667 129.896 7.44C130.016 7.32 130.203 7.26 130.456 7.26H133.356C133.61 7.26 133.79 7.32 133.896 7.44C134.016 7.54667 134.076 7.72667 134.076 7.98V14.28C134.076 14.5333 134.016 14.72 133.896 14.84C133.79 14.9467 133.61 15 133.356 15ZM148.262 15H138.082C137.829 15 137.642 14.9467 137.522 14.84C137.416 14.72 137.362 14.5333 137.362 14.28V1.32C137.362 1.06667 137.416 0.886666 137.522 0.779999C137.642 0.659999 137.829 0.599999 138.082 0.599999H141.182C141.436 0.599999 141.616 0.659999 141.722 0.779999C141.842 0.886666 141.902 1.06667 141.902 1.32V11.22H144.642V7.98C144.642 7.72667 144.696 7.54667 144.802 7.44C144.922 7.32 145.109 7.26 145.362 7.26H148.262C148.516 7.26 148.696 7.32 148.802 7.44C148.922 7.54667 148.982 7.72667 148.982 7.98V14.28C148.982 14.5333 148.922 14.72 148.802 14.84C148.696 14.9467 148.516 15 148.262 15Z" fill="white"/>
<path d="M75.499 15H65.979C65.7257 15 65.539 14.9467 65.419 14.84C65.3123 14.72 65.259 14.5333 65.259 14.28V10.84C65.259 10.0667 65.3323 9.43333 65.479 8.94C65.639 8.43333 65.859 8.02 66.139 7.7C66.419 7.38 66.7523 7.12667 67.139 6.94C67.5257 6.75333 67.9457 6.59333 68.399 6.46L71.079 5.62C71.2923 5.56667 71.4323 5.48667 71.499 5.38C71.579 5.27333 71.619 5.11333 71.619 4.9C71.619 4.7 71.579 4.56667 71.499 4.5C71.419 4.42 71.279 4.38 71.079 4.38H66.739C66.4857 4.38 66.299 4.32667 66.179 4.22C66.0723 4.1 66.019 3.91333 66.019 3.66V1.32C66.019 1.06667 66.0723 0.886666 66.179 0.779999C66.299 0.659999 66.4857 0.599999 66.739 0.599999H72.639C73.7723 0.599999 74.639 0.886666 75.239 1.46C75.8523 2.02 76.159 2.84 76.159 3.92V5.8C76.159 6.8 75.879 7.56667 75.319 8.1C74.759 8.63333 73.999 9.04667 73.039 9.34L70.319 10.2C70.119 10.2533 69.979 10.3133 69.899 10.38C69.8323 10.4467 69.799 10.5867 69.799 10.8V11.22H75.499C75.7523 11.22 75.9323 11.28 76.039 11.4C76.159 11.5067 76.219 11.6867 76.219 11.94V14.28C76.219 14.5333 76.159 14.72 76.039 14.84C75.9323 14.9467 75.7523 15 75.499 15Z" fill="#C7D2FE"/>
</svg>
